<?xml version="1.0" encoding="utf-8"?>
<!-- Generator: Adobe Illustrator 28.2.0, SVG Export Plug-In . SVG Version: 6.00 Build 0)  -->
<svg version="1.1" id="Layer_1" xmlns="http://www.w3.org/2000/svg" xmlns:xlink="http://www.w3.org/1999/xlink" x="0px" y="0px"
	 viewBox="0 0 1920 600" style="enable-background:new 0 0 1920 600;" xml:space="preserve">
<style type="text/css">
	.st0{enable-background:new    ;}
	.st1{fill:#0067B1;}
	.st2{fill:#003E7E;}
	.st3{fill:#0096DE;}
	.st4{clip-path:url(#SVGID_00000159431180677570238490000003920711702257327524_);}
	.st5{fill:#FFFFFF;}
	.st6{fill:none;stroke:#FFFFFF;stroke-width:3.79;stroke-miterlimit:10;}
</style>
<g class="st0">
	<path class="st1" d="M548.6,101.8h65.6l136.7,208.4c13.7,20.8,30,55.9,30,55.9h1c0,0-3.6-34.6-3.6-55.9V101.8h65v360.8h-65
		L641.6,254.8c-13.7-20.8-30-55.9-30-55.9h-1c0,0,3.6,34.6,3.6,55.9v207.9h-65.6V101.8z"/>
	<path class="st1" d="M934.9,101.8h65.6v360.8h-65.6V101.8z"/>
	<path class="st1" d="M1091.9,101.8h65.6v304.4h156v56.4h-221.6V101.8z"/>
	<path class="st1" d="M1365.8,101.8h216v56.4h-150.4v94.5h121.5v56.4h-121.5v97.1h158.6v56.4h-224.1V101.8z"/>
	<path class="st1" d="M1666.2,370.1c0,0,39.1,38.1,90,38.1c27.4,0,52.3-14.2,52.3-43.7c0-64.5-170.2-53.4-170.2-164.1
		c0-60,51.8-104.7,121-104.7c71.1,0,107.7,38.6,107.7,38.6l-28.5,53.4c0,0-34.6-31.5-79.8-31.5c-30.5,0-54.4,17.8-54.4,43.2
		c0,64,169.7,48.3,169.7,163.6c0,57.4-43.7,105.7-118.9,105.7c-80.3,0-124.5-49.3-124.5-49.3L1666.2,370.1z"/>
</g>
<g class="st0">
	<path class="st2" d="M549.5,503.4h5.6l17.8,26c1.5,2.2,3.3,5.8,3.3,5.8h0.1c0,0-0.4-3.6-0.4-5.8v-26h5.6v40.1H576l-17.9-26
		c-1.5-2.2-3.3-5.8-3.3-5.8h-0.1c0,0,0.4,3.6,0.4,5.8v26h-5.6V503.4z"/>
	<path class="st2" d="M603.7,514.1c8.1,0,12.4,6,12.4,13.4c0,0.7-0.2,2.4-0.2,2.4H595c0.3,6.3,4.8,9.5,9.9,9.5
		c4.9,0,8.5-3.3,8.5-3.3l2.3,4c0,0-4.3,4.1-11.1,4.1c-9,0-15.2-6.5-15.2-15C589.3,520,595.5,514.1,603.7,514.1z M610.5,525.8
		c-0.2-4.9-3.2-7.3-6.9-7.3c-4.2,0-7.6,2.6-8.4,7.3H610.5z"/>
	<path class="st2" d="M622.4,514.7h5.5v17.1c0,4,0.8,7.1,5.4,7.1c5.8,0,9.3-5.2,9.3-10.8v-13.4h5.5v28.7h-5.3v-3.8
		c0-1.2,0.1-2.1,0.1-2.1h-0.1c-1.2,2.8-4.9,6.6-10.6,6.6c-6.5,0-9.8-3.4-9.8-11V514.7z"/>
</g>
<g class="st0">
	<path class="st2" d="M656.7,514.7h5.3v5c0,1.2-0.1,2.2-0.1,2.2h0.1c1.3-4.2,4.7-7.5,9.1-7.5c0.7,0,1.4,0.1,1.4,0.1v5.4
		c0,0-0.7-0.2-1.6-0.2c-3.5,0-6.8,2.5-8.1,6.8c-0.5,1.6-0.7,3.4-0.7,5.2v11.7h-5.5V514.7z"/>
</g>
<g class="st0">
	<path class="st2" d="M691.2,514.1c8.6,0,15.5,6.3,15.5,15c0,8.7-6.9,15.1-15.5,15.1s-15.5-6.4-15.5-15.1
		C675.7,520.4,682.6,514.1,691.2,514.1z M691.2,539.4c5.4,0,9.9-4.3,9.9-10.3c0-6-4.4-10.2-9.9-10.2c-5.4,0-9.9,4.3-9.9,10.2
		C681.3,535.1,685.8,539.4,691.2,539.4z"/>
	<path class="st2" d="M728.9,503.4h5.6v40.1h-5.6V503.4z"/>
	<path class="st2" d="M744.3,514.7h5.3v3.8c0,1.1-0.1,2.1-0.1,2.1h0.1c1.1-2.5,4.5-6.6,10.8-6.6c6.8,0,9.9,3.7,9.9,11v18.4h-5.5
		v-17.1c0-4-0.9-7.2-5.4-7.2c-4.4,0-7.9,2.9-9.1,7c-0.3,1.1-0.5,2.4-0.5,3.9v13.4h-5.5V514.7z"/>
	<path class="st2" d="M779.7,519.6H776v-4.4h3.9v-8.3h5.3v8.3h6.9v4.4h-6.9v12.8c0,5.7,4,6.5,6.1,6.5c0.8,0,1.3-0.1,1.3-0.1v4.9
		c0,0-0.8,0.1-1.9,0.1c-3.7,0-11-1.1-11-10.7V519.6z"/>
	<path class="st2" d="M811.2,514.1c8.1,0,12.4,6,12.4,13.4c0,0.7-0.2,2.4-0.2,2.4h-20.9c0.3,6.3,4.8,9.5,9.9,9.5
		c4.9,0,8.5-3.3,8.5-3.3l2.3,4c0,0-4.3,4.1-11.1,4.1c-9,0-15.2-6.5-15.2-15C796.9,520,803,514.1,811.2,514.1z M818,525.8
		c-0.2-4.9-3.2-7.3-6.9-7.3c-4.2,0-7.6,2.6-8.4,7.3H818z"/>
	<path class="st2" d="M830,503.4h5.5v31.3c0,3.5,1.4,4.1,3.1,4.1c0.5,0,1-0.1,1-0.1v4.9c0,0-0.9,0.1-1.8,0.1c-3.1,0-7.7-0.9-7.7-8.1
		V503.4z"/>
	<path class="st2" d="M845,503.4h5.5v31.3c0,3.5,1.4,4.1,3.1,4.1c0.5,0,1-0.1,1-0.1v4.9c0,0-0.9,0.1-1.8,0.1c-3.1,0-7.7-0.9-7.7-8.1
		V503.4z"/>
	<path class="st2" d="M860.3,503.4h5.6v5.6h-5.6V503.4z M860.4,514.7h5.5v28.7h-5.5V514.7z"/>
	<path class="st2" d="M885,550.6c5,0,9.1-2.2,9.1-8.1v-2.1c0-0.9,0.1-1.8,0.1-1.8H894c-1.7,2.8-4.4,4.5-8.5,4.5
		c-8,0-12.8-6.4-12.8-14.7c0-8.2,4.6-14.4,12.5-14.4c6.9,0,9,4.3,9,4.3h0.1c0,0-0.1-0.4-0.1-0.9v-2.7h5.3v27.5
		c0,9.5-7.2,13.1-14.5,13.1c-3.5,0-7-1-9.8-2.4l1.8-4.3C877.1,548.7,880.7,550.6,885,550.6z M894.2,528.5c0-7.5-3.6-9.6-8.1-9.6
		c-5,0-7.8,3.6-7.8,9.5c0,6,3.2,10,8.3,10C890.5,538.4,894.2,536,894.2,528.5z"/>
	<path class="st2" d="M920.5,514.1c8.1,0,12.4,6,12.4,13.4c0,0.7-0.2,2.4-0.2,2.4h-20.9c0.3,6.3,4.8,9.5,9.9,9.5
		c4.9,0,8.5-3.3,8.5-3.3l2.3,4c0,0-4.3,4.1-11.1,4.1c-9,0-15.2-6.5-15.2-15C906.2,520,912.4,514.1,920.5,514.1z M927.4,525.8
		c-0.2-4.9-3.2-7.3-6.9-7.3c-4.2,0-7.6,2.6-8.4,7.3H927.4z"/>
	<path class="st2" d="M939.7,514.7h5.3v3.8c0,1.1-0.1,2.1-0.1,2.1h0.1c1.1-2.5,4.5-6.6,10.8-6.6c6.8,0,9.9,3.7,9.9,11v18.4h-5.5
		v-17.1c0-4-0.9-7.2-5.4-7.2c-4.4,0-7.9,2.9-9.1,7c-0.3,1.1-0.5,2.4-0.5,3.9v13.4h-5.5V514.7z"/>
	<path class="st2" d="M975.1,519.6h-3.7v-4.4h3.9v-8.3h5.3v8.3h6.9v4.4h-6.9v12.8c0,5.7,4,6.5,6.1,6.5c0.8,0,1.3-0.1,1.3-0.1v4.9
		c0,0-0.8,0.1-1.9,0.1c-3.7,0-11-1.1-11-10.7V519.6z"/>
	<path class="st2" d="M1009.9,503.4h5.6v35.2h17.9v4.9h-23.5V503.4z"/>
	<path class="st2" d="M1051.2,514.1c8.1,0,12.4,6,12.4,13.4c0,0.7-0.2,2.4-0.2,2.4h-20.9c0.3,6.3,4.8,9.5,9.9,9.5
		c4.9,0,8.5-3.3,8.5-3.3l2.3,4c0,0-4.3,4.1-11.1,4.1c-9,0-15.2-6.5-15.2-15C1036.8,520,1043,514.1,1051.2,514.1z M1058,525.8
		c-0.2-4.9-3.2-7.3-6.9-7.3c-4.2,0-7.6,2.6-8.4,7.3H1058z"/>
	<path class="st2" d="M1085.3,525.5h1.2V525c0-4.7-2.7-6.3-6.3-6.3c-4.4,0-8,2.8-8,2.8l-2.3-4c0,0,4.1-3.4,10.7-3.4
		c7.3,0,11.3,4,11.3,11.2v18.2h-5.1v-2.7c0-1.3,0.1-2.3,0.1-2.3h-0.1c0,0-2.3,5.7-9.2,5.7c-4.9,0-9.8-3-9.8-8.7
		C1067.9,525.9,1080.4,525.5,1085.3,525.5z M1078.9,539.7c4.7,0,7.7-4.9,7.7-9.1v-0.9h-1.4c-4.1,0-11.6,0.3-11.6,5.4
		C1073.5,537.4,1075.3,539.7,1078.9,539.7z"/>
	<path class="st2" d="M1111.4,514.1c6.6,0,8.9,4.5,8.9,4.5h0.1c0,0-0.1-0.9-0.1-1.9v-13.3h5.5v40.1h-5.2v-2.7c0-1.1,0.1-1.9,0.1-1.9
		h-0.1c0,0-2.3,5.3-9.4,5.3c-7.8,0-12.7-6.1-12.7-15C1098.4,520,1103.8,514.1,1111.4,514.1z M1112.1,539.4c4.3,0,8.3-3,8.3-10.3
		c0-5.1-2.7-10.2-8.1-10.2c-4.5,0-8.3,3.7-8.3,10.3C1104,535.3,1107.3,539.4,1112.1,539.4z"/>
	<path class="st2" d="M1146.7,514.1c8.1,0,12.4,6,12.4,13.4c0,0.7-0.2,2.4-0.2,2.4H1138c0.3,6.3,4.8,9.5,9.9,9.5
		c4.9,0,8.5-3.3,8.5-3.3l2.3,4c0,0-4.3,4.1-11.1,4.1c-9,0-15.2-6.5-15.2-15C1132.3,520,1138.5,514.1,1146.7,514.1z M1153.5,525.8
		c-0.2-4.9-3.2-7.3-6.9-7.3c-4.2,0-7.6,2.6-8.4,7.3H1153.5z"/>
	<path class="st2" d="M1165.8,514.7h5.3v5c0,1.2-0.1,2.2-0.1,2.2h0.1c1.3-4.2,4.7-7.5,9.1-7.5c0.7,0,1.4,0.1,1.4,0.1v5.4
		c0,0-0.7-0.2-1.6-0.2c-3.5,0-6.8,2.5-8.1,6.8c-0.5,1.6-0.7,3.4-0.7,5.2v11.7h-5.5V514.7z"/>
	<path class="st2" d="M1187.4,536c0,0,3.2,3.3,8.2,3.3c2.4,0,4.8-1.2,4.8-3.6c0-5.3-14.8-4.2-14.8-13.6c0-5.2,4.7-8.2,10.4-8.2
		c6.3,0,9.2,3.2,9.2,3.2l-2.2,4.1c0,0-2.6-2.6-7.1-2.6c-2.4,0-4.7,1-4.7,3.5c0,5.2,14.8,4,14.8,13.4c0,4.8-4.1,8.3-10.4,8.3
		c-7,0-10.9-4.2-10.9-4.2L1187.4,536z"/>
	<path class="st2" d="M1212.5,503.4h5.5v14.7c0,1.4-0.1,2.4-0.1,2.4h0.1c1.2-2.8,4.9-6.4,10.6-6.4c6.8,0,9.9,3.7,9.9,11v18.4h-5.5
		v-17.1c0-4-0.9-7.2-5.4-7.2c-4.3,0-7.9,3-9.1,7.1c-0.3,1.1-0.5,2.4-0.5,3.8v13.4h-5.5V503.4z"/>
	<path class="st2" d="M1246.7,503.4h5.6v5.6h-5.6V503.4z M1246.7,514.7h5.5v28.7h-5.5V514.7z"/>
	<path class="st2" d="M1260.9,514.7h5v2.4c0,1.1-0.1,2.1-0.1,2.1h0.1c0,0,2.4-5.2,9.6-5.2c7.7,0,12.6,6.1,12.6,15
		c0,9.1-5.5,15-13,15c-6.3,0-8.8-4.7-8.8-4.7h-0.1c0,0,0.1,1,0.1,2.5v12.9h-5.5V514.7z M1274.3,539.4c4.5,0,8.3-3.7,8.3-10.3
		c0-6.2-3.3-10.3-8.1-10.3c-4.3,0-8.3,3-8.3,10.3C1266.2,534.3,1269,539.4,1274.3,539.4z"/>
	<path class="st2" d="M1310.6,503.4h23.3v4.9h-17.6v12.5h14.4v4.9h-14.4v12.9h18.6v4.9h-24.2V503.4z"/>
	<path class="st2" d="M1342,514.7h5.3v3.8c0,1.1-0.1,2.1-0.1,2.1h0.1c1.1-2.5,4.5-6.6,10.8-6.6c6.8,0,9.9,3.7,9.9,11v18.4h-5.5
		v-17.1c0-4-0.9-7.2-5.4-7.2c-4.4,0-7.9,2.9-9.1,7c-0.3,1.1-0.5,2.4-0.5,3.9v13.4h-5.5V514.7z"/>
	<path class="st2" d="M1376.2,503.4h5.5v14.7c0,1.4-0.1,2.4-0.1,2.4h0.1c1.2-2.8,4.9-6.4,10.6-6.4c6.8,0,9.9,3.7,9.9,11v18.4h-5.5
		v-17.1c0-4-0.9-7.2-5.4-7.2c-4.3,0-7.9,3-9.1,7.1c-0.3,1.1-0.5,2.4-0.5,3.8v13.4h-5.5V503.4z"/>
	<path class="st2" d="M1425.4,525.5h1.2V525c0-4.7-2.7-6.3-6.3-6.3c-4.4,0-8,2.8-8,2.8l-2.3-4c0,0,4.1-3.4,10.7-3.4
		c7.3,0,11.3,4,11.3,11.2v18.2h-5.1v-2.7c0-1.3,0.1-2.3,0.1-2.3h-0.1c0,0-2.3,5.7-9.2,5.7c-4.9,0-9.8-3-9.8-8.7
		C1408.1,525.9,1420.6,525.5,1425.4,525.5z M1419.1,539.7c4.7,0,7.7-4.9,7.7-9.1v-0.9h-1.4c-4.1,0-11.6,0.3-11.6,5.4
		C1413.7,537.4,1415.5,539.7,1419.1,539.7z"/>
	<path class="st2" d="M1440.4,514.7h5.3v3.8c0,1.1-0.1,2.1-0.1,2.1h0.1c1.1-2.5,4.5-6.6,10.8-6.6c6.8,0,9.9,3.7,9.9,11v18.4h-5.5
		v-17.1c0-4-0.9-7.2-5.4-7.2c-4.4,0-7.9,2.9-9.1,7c-0.3,1.1-0.5,2.4-0.5,3.9v13.4h-5.5V514.7z"/>
	<path class="st2" d="M1487.9,514.1c7.2,0,10.8,4.2,10.8,4.2l-2.6,3.9c0,0-3.1-3.3-7.9-3.3c-5.8,0-10,4.3-10,10.2
		c0,5.8,4.2,10.3,10.2,10.3c5.3,0,8.9-3.9,8.9-3.9l2.2,4c0,0-4,4.6-11.5,4.6c-9,0-15.4-6.4-15.4-15
		C1472.6,520.6,1478.9,514.1,1487.9,514.1z"/>
	<path class="st2" d="M1518,514.1c8.1,0,12.4,6,12.4,13.4c0,0.7-0.2,2.4-0.2,2.4h-20.9c0.3,6.3,4.8,9.5,9.9,9.5
		c4.9,0,8.5-3.3,8.5-3.3l2.3,4c0,0-4.3,4.1-11.1,4.1c-9,0-15.2-6.5-15.2-15C1503.7,520,1509.8,514.1,1518,514.1z M1524.8,525.8
		c-0.2-4.9-3.2-7.3-6.9-7.3c-4.2,0-7.6,2.6-8.4,7.3H1524.8z"/>
	<path class="st2" d="M1537.1,514.7h5.3v3.8c0,1.1-0.1,2.1-0.1,2.1h0.1c1.4-3.3,5.4-6.6,9.9-6.6c4.8,0,7.7,2.2,8.6,6.5h0.1
		c1.6-3.5,5.6-6.5,10.2-6.5c6.5,0,9.5,3.7,9.5,11v18.4h-5.5v-17.2c0-4-0.8-7.2-5.1-7.2c-4,0-7,3.4-8.1,7.3c-0.3,1.2-0.4,2.5-0.4,4
		v13.1h-5.5v-17.2c0-3.7-0.6-7.2-5-7.2c-4.2,0-7.2,3.5-8.2,7.5c-0.3,1.1-0.3,2.4-0.3,3.7v13.1h-5.5V514.7z"/>
	<path class="st2" d="M1601.4,514.1c8.1,0,12.4,6,12.4,13.4c0,0.7-0.2,2.4-0.2,2.4h-20.9c0.3,6.3,4.8,9.5,9.9,9.5
		c4.9,0,8.5-3.3,8.5-3.3l2.3,4c0,0-4.3,4.1-11.1,4.1c-9,0-15.2-6.5-15.2-15C1587,520,1593.2,514.1,1601.4,514.1z M1608.2,525.8
		c-0.2-4.9-3.2-7.3-6.9-7.3c-4.2,0-7.6,2.6-8.4,7.3H1608.2z"/>
	<path class="st2" d="M1620.5,514.7h5.3v3.8c0,1.1-0.1,2.1-0.1,2.1h0.1c1.1-2.5,4.5-6.6,10.8-6.6c6.8,0,9.9,3.7,9.9,11v18.4h-5.5
		v-17.1c0-4-0.9-7.2-5.4-7.2c-4.4,0-7.9,2.9-9.1,7c-0.3,1.1-0.5,2.4-0.5,3.9v13.4h-5.5V514.7z"/>
	<path class="st2" d="M1655.9,519.6h-3.7v-4.4h3.9v-8.3h5.3v8.3h6.9v4.4h-6.9v12.8c0,5.7,4,6.5,6.1,6.5c0.8,0,1.3-0.1,1.3-0.1v4.9
		c0,0-0.8,0.1-1.9,0.1c-3.7,0-11-1.1-11-10.7V519.6z"/>
</g>
<g class="st0">
	<path class="st2" d="M1690.8,534.6c0,0,4.3,4.3,10.2,4.3c3.7,0,6.9-2.1,6.9-5.9c0-8.7-19.4-6.8-19.4-19.1c0-6.2,5.4-11.2,12.9-11.2
		c7.4,0,11.3,4,11.3,4l-2.6,4.7c0,0-3.7-3.5-8.8-3.5c-4.3,0-7.3,2.7-7.3,5.8c0,8.3,19.4,6.1,19.4,19.1c0,6.2-4.8,11.3-12.7,11.3
		c-8.5,0-13.3-5.3-13.3-5.3L1690.8,534.6z"/>
</g>
<g class="st0">
	<path class="st2" d="M1718.2,549.4c0,0,1.6,1.2,3.3,1.2c2.2,0,4.1-1.6,5.2-4.2l1.4-3.3l-12-28.4h6.2l7.2,18.8
		c0.6,1.5,1.1,3.5,1.1,3.5h0.1c0,0,0.5-1.9,1-3.4l7-18.8h6l-13.4,33.9c-1.8,4.4-5.3,6.8-9.3,6.8c-3.2,0-5.6-1.8-5.6-1.8
		L1718.2,549.4z"/>
	<path class="st2" d="M1749.6,536c0,0,3.2,3.3,8.2,3.3c2.4,0,4.8-1.2,4.8-3.6c0-5.3-14.8-4.2-14.8-13.6c0-5.2,4.7-8.2,10.4-8.2
		c6.3,0,9.2,3.2,9.2,3.2l-2.2,4.1c0,0-2.6-2.6-7.1-2.6c-2.4,0-4.7,1-4.7,3.5c0,5.2,14.8,4,14.8,13.4c0,4.8-4.1,8.3-10.4,8.3
		c-7,0-10.9-4.2-10.9-4.2L1749.6,536z"/>
	<path class="st2" d="M1775.8,519.6h-3.7v-4.4h3.9v-8.3h5.3v8.3h6.9v4.4h-6.9v12.8c0,5.7,4,6.5,6.1,6.5c0.8,0,1.3-0.1,1.3-0.1v4.9
		c0,0-0.8,0.1-1.9,0.1c-3.7,0-11-1.1-11-10.7V519.6z"/>
	<path class="st2" d="M1807.3,514.1c8.1,0,12.4,6,12.4,13.4c0,0.7-0.2,2.4-0.2,2.4h-20.9c0.3,6.3,4.8,9.5,9.9,9.5
		c4.9,0,8.5-3.3,8.5-3.3l2.3,4c0,0-4.3,4.1-11.1,4.1c-9,0-15.2-6.5-15.2-15C1793,520,1799.1,514.1,1807.3,514.1z M1814.1,525.8
		c-0.2-4.9-3.2-7.3-6.9-7.3c-4.2,0-7.6,2.6-8.4,7.3H1814.1z"/>
	<path class="st2" d="M1826.4,514.7h5.3v3.8c0,1.1-0.1,2.1-0.1,2.1h0.1c1.4-3.3,5.4-6.6,9.9-6.6c4.8,0,7.7,2.2,8.6,6.5h0.1
		c1.6-3.5,5.6-6.5,10.2-6.5c6.5,0,9.5,3.7,9.5,11v18.4h-5.5v-17.2c0-4-0.8-7.2-5.1-7.2c-4,0-7,3.4-8.1,7.3c-0.3,1.2-0.4,2.5-0.4,4
		v13.1h-5.5v-17.2c0-3.7-0.6-7.2-5-7.2c-4.2,0-7.2,3.5-8.2,7.5c-0.3,1.1-0.3,2.4-0.3,3.7v13.1h-5.5V514.7z"/>
</g>
<path class="st3" d="M82.3,313.3c0,0-17.6,81.9-56.1,94.7c18.5,7.8,81.2,10.7,100.9-26c9.3,4.1,19.5,6.4,30.3,6.4L82.3,313.3
	L82.3,313.3z"/>
<ellipse class="st3" cx="274.7" cy="281.7" rx="217.4" ry="180.9"/>
<g>
	<defs>
		<ellipse id="SVGID_1_" cx="274.7" cy="281.7" rx="217.4" ry="180.9"/>
	</defs>
	<clipPath id="SVGID_00000016759493256485779410000004428183746953390007_">
		<use xlink:href="#SVGID_1_"  style="overflow:visible;"/>
	</clipPath>
	<g style="clip-path:url(#SVGID_00000016759493256485779410000004428183746953390007_);">
		<path class="st5" d="M431.3,305.8l-19.8-22.6c-5.8-6.7-8.5-15.5-7.2-24.3l3.6-25.1c1.5-10.6,0.5-21.4-3.1-31.4l0,0
			c-6.1-17.6-16.7-33.3-30.6-45.7l0,0c-11.4-10.1-24.6-17.4-38.9-21.8c-18.1-6.7-38.8-10.3-60.8-10.3c-76,0-137.6,56.1-137.6,125.4
			c0,97.8,56.4,120.7,56.4,144.4v115.7h116.8v-71.7c0-12.5,10.1-22.6,22.6-22.6h51.2c4.3,0,8.5-1.5,11.8-4.3l0,0
			c4.2-3.5,6.6-8.7,6.6-14.2v-13c0-2.5,1.4-4.8,3.7-6c0,0,6.1-2.1,6.1-10.8c0-1.8-0.7-3.5-2-4.7l-3.9-3.9l4.1-1.5
			c2.2-0.8,3.7-3,3.7-5.4l0,0c0-1.8-0.9-3.5-2.3-4.6l-1.6-1.2v-7.8c0-2.4,1.4-4.6,3.6-5.6l12.9-5.9c3.2-1.5,5.7-4.1,7-7.4l0,0
			C435.5,314.8,434.6,309.6,431.3,305.8L431.3,305.8z"/>
		<path class="st2" d="M274.7,124.5L274.7,124.5C290.4,200,340.4,259.6,405,280l5.4,1.7l-5.4,1.7c-64.7,20.5-114.6,80-130.3,155.5
			l0,0l0,0c-15.7-75.5-65.7-135-130.3-155.5l-5.4-1.7l5.4-1.7C209,259.6,259,200,274.7,124.5L274.7,124.5L274.7,124.5z"/>
		<path class="st6" d="M200.4,290.1h45.1c1.6,0,2.9,1.3,2.9,3v58.1c0,1.6,1.3,3,3,3h43.9c1.5,0,2.9-1.3,2.9-3v-77.3c0-1.6,1.3-3,3-3
			h41.2"/>
		<path class="st6" d="M298.5,284.1h-10.3c-1.6,0-3-1.3-3-3v-58.6c0-1.6-1.3-2.9-3-2.9h-31"/>
		<path class="st6" d="M297.7,298.9h-20.2c-1.6,0-3,1.3-3,3v26"/>
		<line class="st6" x1="274.7" y1="354.1" x2="274.7" y2="443.6"/>
		<path class="st6" d="M257.8,249.1v11.2c0,1.6,1.3,3,3,3H282h15.7c1.6,0,3-1.3,3-3v-25.1"/>
		<circle class="st6" cx="246.2" cy="220.2" r="4.8"/>
		
			<ellipse transform="matrix(0.1602 -0.9871 0.9871 0.1602 -24.6321 459.6485)" class="st6" cx="257.8" cy="244.3" rx="4.8" ry="4.8"/>
		<circle class="st6" cx="274.7" cy="181.1" r="4.8"/>
		<circle class="st6" cx="300.7" cy="230.3" r="4.8"/>
		<circle class="st6" cx="346.2" cy="270.7" r="4.8"/>
		<circle class="st6" cx="274.4" cy="331.3" r="4.8"/>
		<circle class="st6" cx="196.4" cy="290" r="4.8"/>
		<path class="st6" d="M298.5,314.2h17.8c1.6,0,3-1.3,3-3V299"/>
		<circle class="st6" cx="319.3" cy="294.9" r="4.8"/>
		<path class="st6" d="M222.7,288.4v-17.8c0-1.6,1.3-3,2.9-3h9.3"/>
		<circle class="st6" cx="239.1" cy="267.6" r="4.8"/>
		<path class="st6" d="M248.4,324.8h-14.2c-1.6,0-2.9-1.3-2.9-3v-9.3"/>
		<circle class="st6" cx="231.3" cy="308.5" r="4.8"/>
		<line class="st6" x1="274.7" y1="186.8" x2="274.7" y2="219.7"/>
	</g>
</g>
</svg>
