<svg width="112" height="113" xmlns="http://www.w3.org/2000/svg" xmlns:xlink="http://www.w3.org/1999/xlink" xml:space="preserve" overflow="hidden"><g transform="translate(-388 -505)"><g><g><g><g><path d="M411.966 583.482 403.085 592.363 413.637 602.915 422.518 594.034C426.688 596.834 431.435 598.838 436.541 599.84L436.541 612.401 451.459 612.401 451.459 599.84C456.565 598.838 461.312 596.834 465.481 594.034L474.363 602.915 484.915 592.363 476.034 583.482C478.834 579.312 480.838 574.565 481.84 569.459L494.4 569.459 494.4 554.541 481.84 554.541C480.838 549.435 478.834 544.688 476.034 540.518L484.915 531.637 474.363 521.085 465.481 529.966C461.312 527.166 456.565 525.162 451.459 524.16L451.459 511.599 436.541 511.599 436.541 524.16C431.435 525.162 426.688 527.166 422.518 529.966L413.637 521.085 403.085 531.637 411.966 540.518C409.166 544.688 407.162 549.435 406.16 554.541L393.599 554.541 393.599 569.459 406.16 569.459C407.162 574.569 409.166 579.316 411.966 583.482ZM444 547.624C451.941 547.624 458.376 554.059 458.376 562 458.376 569.941 451.941 576.376 444 576.376 436.059 576.376 429.624 569.941 429.624 562 429.624 554.059 436.059 547.624 444 547.624Z" fill="#FDBA12" fill-rule="nonzero" fill-opacity="1"/></g></g></g></g></g></svg>