<svg width="112" height="112" xmlns="http://www.w3.org/2000/svg" xmlns:xlink="http://www.w3.org/1999/xlink" xml:space="preserve" overflow="hidden"><g transform="translate(-272 -508)"><g><path d="M328 620C297.073 620 272 594.927 272 564 272 533.073 297.073 508 328 508 358.927 508 384 533.073 384 564 384 594.927 358.927 620 328 620ZM323.332 547.668C323.332 545.686 325.786 543.013 328.057 543 330.616 542.982 332.668 544.921 332.668 546.92 332.668 549.751 332.318 550.407 329.142 553.347 328.993 553.487 328.993 553.487 328.906 553.57 328.809 553.658 328.809 553.658 328.652 553.802 321.385 560.548 318.668 566.214 318.668 575.668 318.668 576.954 319.709 578 321 578L335 578C336.291 578 337.332 576.954 337.332 575.668 337.332 571.791 337.861 570.724 341.348 567.486 341.497 567.351 341.497 567.351 341.584 567.268 341.676 567.18 341.676 567.18 341.834 567.036 348.79 560.583 351.332 555.486 351.332 546.919 351.336 534.586 340.893 524.253 327.943 524.331 315.286 524.414 304.668 535.531 304.668 547.668 304.668 548.954 305.709 549.999 307 549.999L321 549.999C322.291 549.999 323.332 548.954 323.332 547.668ZM335 582.668 321 582.668C319.709 582.668 318.668 583.709 318.668 585L318.668 594.332C318.668 595.622 319.709 596.668 321 596.668L335 596.668C336.291 596.668 337.332 595.622 337.332 594.332L337.332 585C337.332 583.709 336.291 582.668 335 582.668Z" fill="#FDBA12" fill-rule="nonzero" fill-opacity="1"/></g></g></svg>