<svg width="114" height="112" xmlns="http://www.w3.org/2000/svg" xmlns:xlink="http://www.w3.org/1999/xlink" xml:space="preserve" overflow="hidden"><g transform="translate(-518 -508)"><g><g><g><g><path d="M552.251 564C552.251 560.133 555.383 557 559.251 557 563.118 557 566.251 560.133 566.251 564L573.251 564 573.251 553.5C569.383 553.5 566.251 550.367 566.251 546.5 566.251 542.633 569.383 539.5 573.251 539.5L573.251 530.846C572.704 530.877 572.161 530.877 571.606 530.938 564.859 531.761 558.586 534.849 553.826 539.706 549.061 544.557 546.091 550.884 545.395 557.651 545.194 559.76 545.211 561.891 545.447 563.999Z" fill="#FDBA12" fill-rule="nonzero" fill-opacity="1"/><path d="M583.749 564C583.749 560.133 586.882 557 590.749 557 594.617 557 597.749 560.133 597.749 564L604.561 564C604.684 562.889 604.749 561.773 604.749 560.653 604.763 553.049 601.871 545.73 596.669 540.191 591.463 534.648 584.335 531.305 576.75 530.846L576.75 541.249C576.75 541.713 576.566 542.159 576.238 542.488 575.91 542.816 575.463 542.999 575 542.999L573.25 542.999C571.316 542.999 569.75 544.566 569.75 546.499 569.75 548.433 571.316 549.999 573.25 549.999L575 549.999C575.463 549.999 575.91 550.183 576.238 550.511 576.566 550.839 576.75 551.286 576.75 551.75L576.75 564Z" fill="#FDBA12" fill-rule="nonzero" fill-opacity="1"/><path d="M628.375 521.125C628.375 525.474 624.849 529 620.5 529 616.151 529 612.625 525.474 612.625 521.125 612.625 516.777 616.151 513.25 620.5 513.25 624.849 513.25 628.375 516.777 628.375 521.125" fill="#FDBA12" fill-rule="nonzero" fill-opacity="1"/><path d="M600.314 582.462 602.576 579.789 609.187 585.385 606.925 588.058Z" fill="#FDBA12" fill-rule="nonzero" fill-opacity="1"/><path d="M539.16 530.715 541.422 528.042 549.686 535.033 547.424 537.706Z" fill="#FDBA12" fill-rule="nonzero" fill-opacity="1"/><path d="M599.259 535.926 609.029 527.662 611.29 530.335 601.521 538.599Z" fill="#FDBA12" fill-rule="nonzero" fill-opacity="1"/><path d="M538.71 587.162 547.425 579.79 549.687 582.463 540.972 589.835Z" fill="#FDBA12" fill-rule="nonzero" fill-opacity="1"/><path d="M612.266 588.5 628.015 588.5 628.015 604.249 612.266 604.249Z" fill="#FDBA12" fill-rule="nonzero" fill-opacity="1"/><path d="M521.516 604.251 539.234 604.251 530.375 588.501Z" fill="#FDBA12" fill-rule="nonzero" fill-opacity="1"/><path d="M524.093 530.749 529.5 527.761 534.907 530.749 533.875 524.419 538.25 519.935 532.204 519.011 529.5 513.25 526.796 519.011 520.75 519.935 525.125 524.419Z" fill="#FDBA12" fill-rule="nonzero" fill-opacity="1"/><path d="M596 567.5C595.536 567.5 595.09 567.316 594.762 566.988 594.434 566.66 594.25 566.214 594.25 565.75L594.25 564C594.25 562.066 592.684 560.5 590.75 560.5 588.816 560.5 587.25 562.066 587.25 564L587.25 565.75C587.25 566.214 587.066 566.66 586.738 566.988 586.41 567.316 585.964 567.5 585.5 567.5L576.75 567.5 576.75 574.5C576.75 574.964 576.566 575.41 576.238 575.738 575.91 576.066 575.464 576.25 575 576.25L573.25 576.25C571.316 576.25 569.75 577.816 569.75 579.75 569.75 581.684 571.316 583.25 573.25 583.25L575 583.25C575.464 583.25 575.91 583.434 576.238 583.762 576.566 584.09 576.75 584.536 576.75 585L576.75 592.801 589.875 592.801 589.875 592.665C589.862 589.165 591.393 585.836 594.066 583.574 599.01 579.426 602.48 573.787 603.954 567.5Z" fill="#FDBA12" fill-rule="nonzero" fill-opacity="1"/><path d="M560.125 592.801 573.251 592.801 573.251 586.75C569.383 586.75 566.251 583.618 566.251 579.75 566.251 575.883 569.383 572.75 573.251 572.75L573.251 567.5 564.501 567.5C564.037 567.5 563.591 567.316 563.262 566.988 562.934 566.66 562.751 566.214 562.751 565.75L562.751 564C562.751 562.066 561.184 560.5 559.251 560.5 557.317 560.5 555.751 562.066 555.751 564L555.751 565.75C555.751 566.214 555.567 566.66 555.239 566.988 554.911 567.317 554.464 567.5 554 567.5L546.047 567.5C547.539 573.857 551.069 579.549 556.1 583.714 558.704 585.95 560.178 589.231 560.126 592.666Z" fill="#FDBA12" fill-rule="nonzero" fill-opacity="1"/><path d="M560.125 602.246C560.125 602.333 560.138 602.416 560.138 602.5L589.862 602.5C589.862 602.412 589.875 602.329 589.875 602.246L589.875 596.164 560.126 596.164Z" fill="#FDBA12" fill-rule="nonzero" fill-opacity="1"/><path d="M572.65 614.749 577.349 614.749C582.813 614.749 587.648 611.21 589.297 605.999L560.702 605.999C562.352 611.21 567.186 614.749 572.651 614.749Z" fill="#FDBA12" fill-rule="nonzero" fill-opacity="1"/></g></g></g></g></g></svg>